/* XPM */
static char *teste[] = {
/* columns rows colors chars-per-pixel */
"48 48 106 2 ",
"   c #15180F",
".  c #151515",
"X  c #181717",
"o  c #161814",
"O  c #191B15",
"+  c #151419",
"@  c #181618",
"#  c #171919",
"$  c #1D1D1D",
"%  c #201C1E",
"&  c #1D2211",
"*  c #1E211C",
"=  c #212614",
"-  c #252B17",
";  c #21231C",
":  c #252A1A",
">  c #292E1C",
",  c #2B3314",
"<  c #2D331B",
"1  c #333C16",
"2  c #31371E",
"3  c #333B1D",
"4  c #383E1D",
"5  c #1E1E21",
"6  c #201E21",
"7  c #1E2121",
"8  c #1F2028",
"9  c #232323",
"0  c #262824",
"q  c #292A24",
"w  c #262628",
"e  c #282728",
"r  c #27292A",
"t  c #2A2A2A",
"y  c #2B3221",
"u  c #303522",
"i  c #333C22",
"p  c #33352A",
"a  c #2C2C30",
"s  c #3B461C",
"d  c #3E4A1D",
"f  c #3A4224",
"g  c #3F4328",
"h  c #414B1E",
"j  c #54661F",
"k  c #434D22",
"l  c #484F27",
"z  c #444B2C",
"x  c #495424",
"c  c #4D5923",
"v  c #475429",
"b  c #4B542A",
"n  c #4E5B29",
"m  c #505B25",
"M  c #515C2C",
"N  c #444832",
"B  c #495330",
"V  c #555F34",
"C  c #556324",
"Z  c #5B6B27",
"A  c #56622A",
"S  c #59652B",
"D  c #5B6A2C",
"F  c #5D7127",
"G  c #566231",
"H  c #606E2D",
"J  c #64742C",
"K  c #67782D",
"L  c #6B7D2B",
"P  c #647335",
"I  c #6D7D33",
"U  c #65723A",
"Y  c #74872E",
"T  c #778B2F",
"R  c #7D932E",
"E  c #6E8132",
"W  c #738433",
"Q  c #758933",
"!  c #7A8D33",
"~  c #758539",
"^  c #7C8D3A",
"/  c #7D9234",
"(  c #7F943B",
")  c #819634",
"_  c #859B35",
"`  c #819739",
"'  c #84983A",
"]  c #8CA435",
"[  c #8DA43C",
"{  c #93AB3C",
"}  c #98AF3C",
"|  c #9AB33D",
" . c #9EBA3E",
".. c #A3BE3E",
"X. c #A6C33F",
"o. c #A8C63C",
"O. c #ACCC3E",
"+. c #8AA040",
"@. c #94AC41",
"#. c #96B040",
"$. c #9CB442",
"%. c #9FB942",
"&. c #A2BD43",
"*. c #A6C342",
"=. c #AAC643",
"-. c #ADCC40",
/* pixels */
"$ $ $ $ 9 $ $ 9 $ 9 $ $ 9 9 t $ . X . . . ; t t t t t 9 . . . . $ t 0 0 0 e w 9 a q w t 9 a 9 . ",
"9 $ 9 $ $ 9 $ 6 6 O 5 $ $ 9 t $ . . . . . . . . . . . . . . . . $ a w $ 6 6 $ 9 $ % 9 $ 9 e 9 . ",
"$ 9 $ * $ $ 9 $ 9 9 $ 9 $ w t $ . . $ , x D L W W L Z x < $ . + 6 a 9 9 $ % $ $ % $ $ 9 $ t 9 . ",
"$ $ 6 $ 9 $ $ 9 $ $ 9 $ 9 $ a ; s Y } =.O.O.O.O.O.O.O.O.=.#.Y h = t 6 $ 9 $ 6 ; $ 9 $ $ 9 0 9 . ",
"9 $ % 9 $ 9 $ $ 9 $ * 5 $ q P | O.-.-.O.O.-.-.=.-.-.O.-.O.O.-.-.$.U q $ $ 9 $ 6 $ $ 9 $ $ t 9 . ",
"$ 9 $ 6 $ $ $ $ $ 9 5 7 c @.-.-.O.-.-.-.-.-.-.-.-.-.-.-.O.O.-.O.-.-.#.n * $ 9 $ 9 $ $ 5 $ t 9 . ",
"9 9 0 0 9 t 9 9 w * y Q =.-.-.O.O.-.-.-.-.-.-.-.-.-.-.-.-.-.-.-.-.O.O.=.Q > $ ; $ $ 7 $ 9 e w . ",
"t a t t t t a a a f @.-.-.-.O.-.-.O.-.O.-.-.-.-.-.-.-.O.-.-.O.-.-.O.-.O.-.{ i % 9 $ 9 $ $ 0 9 . ",
"$ X O O # # $ # 3 $.=.-.-.-.-.-.O.O.O.-.-.O.O.-.-.O.-.O.-.-.-.-.-.-.-.-.=.-.$.f $ % $ 5 5 t 9 . ",
". . . + . .   , } -.O.-.-.-.-.-.-.-.-.=.-.-.-.-.-.-.-.-.-.-.-.-.-.-.-.-.O.O.O. .3 5 9 $ $ e 9 . ",
". . . . . . = [ -.O.-.-.-.O.-.-.-.&.I G O.-.-.-.-.-.-.O.j D | -.-.-.-.-.O.O.-.-.[ y 5 9 $ t 9 . ",
". . . . .   E -.-.-.O.-.-.-.O.O._ < ; * } O.-.-.-.-.-.*.= + ; T O.-.O.-.-.O.-.O.-.Q ; $ 9 t 9 . ",
". + . . . h =.O.-.-.-.-.-.-.-.[ q $ 5 9 R -.-.-.O.-.O.] O . . # ) O.-.-.-.-.-.-.O.=.c 9 $ e 9 . ",
". . . . & } O.-.-.-.-.-.-.-.=.v $ 9 6 E O.O.-.O.-.-.-.-.R .   . 2 =.-.-.-.-.-.O.O.-.$.0 $ t 9 . ",
". . + . C =.-.O.-.-.-.-.-.O. .: 5 $ q =.-.-.-.-.-.-.-.O.=.- . . $ [ -.O.O.-.-.-.-.-.-.D 9 r 9 . ",
"X . + X { =.O.O.-.-.-.-.-.-.` ; 9 ; g O.-.-.-.-.-.-.-.O.O.k .   9 W -.-.-.-.-.-.-.-.O.#.= t 9 . ",
". . . s -.-.O.O.-.-.-.-.-.-.^ 9 5 % b O.O.-.-.-.-.-.-.O.O.S . . $ P -.-.-.-.-.O.-.-.O.-.b q w . ",
". . . E -.-.-.-.-.-.-.-.-.O.E 9 5 9 b -.-.-.-.-.O.-.-.O.O.Z . . * P -.-.O.-.-.-.-.-.O.-.Q t 5 . ",
". . * | -.-.-.-.-.-.-.-.-.O.L . . . k O.-.O.-.-.-.-.-.-.O.C .   $ P O.=.O.-.-.-.-.-.O.O.#.p 6 . ",
". . 1 -.-.-.-.-.-.-.-.-.-.=.L . . + k O.-.-.-.-.-.-.-.-.O.M . . $ U O.O.O.-.-.-.-.-.O.O.=.z w . ",
". . x =.-.-.-.-.-.-.-.-.-.O.H + . . c -.O.-.-.O.-.-.-.-.O.J   . O V O.O.-.-.-.-.-.-.-.-.-.G $ . ",
". . Z O.-.O.O.-.-.-.-.-.-.X.3 O @ @ W -.-.-.-.-.-.-.-.-.O.' . . . :  .O.-.-.O.-.-.-.-.O.-.J . . ",
"9 t Q O.O.O.-.-.-.-.-.-.^ N 0 t a N X.-.-.-.O.-.-.-.-.O.O.=.d . + . > J -.-.-.-.O.-.-.-.-.Y . . ",
"a t ^ O.O.-.-.-.-.-.-.-.b e w w N } O.O.-.-.-.-.-.-.O.O.-.O.| h . . + 3 -.-.-.O.-.-.-.-.-./ . . ",
"t 0 ~ O.O.-.-.-.O.-.O.-.b 6 6 6 n ..O.O.-.-.-.-.-.-.-.-.O.-.=.S . . . < -.O.-.-.-.-.-.-.-.T . . ",
"t 0 ~ O.O.-.O.-.-.-.-.-.F < 5 $ 6 k O.O.-.-.-.-.O.-.-.-.O.-.m . . + O c -.-.-.-.O.-.-.-.-.W . @ ",
"t q J -.O.-.-.-.-.-.O.O.-.$.u $ % 9 _ O.-.-.-.-.-.-.-.O.O.] O . . = @.O.-.-.-.-.-.-.-.O.-.K X e ",
"a 9 A -.O.-.-.-.-.-.-.-.O.O.Z w % % D -.-.-.-.-.-.-.-.-.O.J . . X b -.-.O.-.-.-.-.-.O.O.-.m @ e ",
"a e f =.O.-.-.O.-.-.O.-.O.O.W $ 9 $ b -.-.-.-.-.-.-.-.O.O.C . o . S O.-.O.-.-.-.-.-.O.O.-.4 X a ",
"t q > $.-.-.-.-.-.-.-.-.-.O.W 9 6 % l -.-.-.-.-.-.-.-.O.-.C + . X D O.-.O.-.-.O.-.O.-.-. .; O e ",
"t 9 9 ! -.-.-.-.-.-.-.-.-.O.W 6 % $ b O.O.-.-.-.-.-.-.O.-.C . . O D -.-.-.-.-.O.-.-.-.-.R . $ r ",
"a t ; M -.-.-.-.O.-.-.-.-.O.W $ 6 w l -.-.-.-.-.-.O.-.-.-.A . . . H -.O.-.-.-.-.-.-.-.-.c . @ r ",
"t 9 9 : $.-.-.O.-.-.O.-.-.-./ 9 $ ; z -.O.-.-.-.-.-.-.O.-.x . . . J -.-.-.-.-.-.-.O.O.%.& . . t ",
"t t $ 9 J -.O.-.-.-.-.-.-.-.{ ; 8 $ q O.O.-.-.-.O.-.-.O.-.1 . . . / -.O.-.-.O.-.-.-.O.K . . + $ ",
"a 9 $ 5 < &.O.O.-.O.-.-.-.-.=.f 5 7 7 ( =.O.-.-.-.-.-.-.[ . + . = *.-.-.-.-.O.-.-.O.&.= . . o . ",
"t 9 9 $ 7 D =.O.-.-.-.-.-.O.O.) = $ 8 : _ O.-.O.-.-.-.| >   .   I O.-.-.-.-.-.-.-.-.S X + o + . ",
"t t $ 9 $ ; ` O.-.O.-.O.-.O.-.=.I 0 * 8 [ O.-.-.O.-.-.&.w . X Z -.-.-.-.-.-.-.-.O.] O . + . . X ",
"t 9 $ $ 6 7 3 $.-.O.-.-.-.-.-.O.-.] n s =.O.-.-.-.-.-.-.x k _ =.O.-.-.-.-.-.-.O.$.< . o . . . . ",
"a 9 9 9 $ 6 5 k *.=.O.-.-.-.-.-.O.O.-.=.O.-.-.-.-.-.O.-.X.-.-.-.-.O.-.-.-.-.-.*.b @ + X . . # . ",
"t q 0 9 q w 9 r n *.O.-.-.-.O.-.-.=.-.O.O.-.-.-.-.-.-.-.-.-.O.O.O.O.-.O.-.O.*.V t O . . X . X . ",
"9 r t t t t t a t B &.O.O.-.-.-.-.-.-.-.O.-.-.-.-.-.-.-.-.-.-.-.-.O.O.O.O.&.B q 6 . . @ . + X . ",
". O o X X X . X O # < +.O.O.-.O.-.-.-.-.-.-.-.-.-.O.-.-.O.-.-.-.-.-.O.o.] 2 X . . + . . . o . . ",
". . . . . . . . + . . & J X.-.-.-.-.O.-.-.O.-.-.-.-.-.-.-.-.O.O.O.O.X.J = . . . . . + X . X . . ",
"+ . . . . . . X + . . . . > E X.-.-.-.O.-.-.-.-.O.-.-.-.O.O.O.O.=.W > . . . @ . . . . . . + o . ",
". . . . . . . . . . + + .   . - Z ] o.O.-.-.-.O.-.O.-.O.O.=.{ H - . . . . . . . + . . . . X . . ",
". . . . . X . . . . . O . . . . . O > x K ! ] { { [ ) L b < O . . . . . . . X . . . . . . . . # ",
"9 9 9 9 9 9 9 9 9 9 9 9 9 9 $ . . . . o $ 9 e t 0 0 e w e 0 0 0 t t t t t t 0 t t 0 ; . . . . . ",
"0 t 6 6 5 $ 9 5 ; 9 $ $ 9 w t . . . . . 9 a e w 0 w w t w e e w e 0 9 9 9 e e 9 t a a . . X . . "
};
